<svg width="14" height="16" viewBox="0 0 14 16" fill="none" xmlns="http://www.w3.org/2000/svg">
<path d="M1.82843 8.48528L7.48528 2.82843C8.65685 1.65685 10.5563 1.65685 11.7279 2.82843C12.8995 4 12.8995 5.89949 11.7279 7.07107L5.01041 13.7886C4.42462 14.3744 3.47487 14.3744 2.88909 13.7886C2.3033 13.2028 2.3033 12.253 2.88909 11.6673L8.8995 5.65685C9.09476 5.46159 9.09476 5.14501 8.8995 4.94975C8.70423 4.75448 8.38765 4.75448 8.19239 4.94975L2.18198 10.9602C1.20567 11.9365 1.20567 13.5194 2.18198 14.4957C3.15829 15.472 4.7412 15.472 5.71751 14.4957L12.435 7.77817C13.9971 6.21607 13.9971 3.68342 12.435 2.12132C10.8729 0.559221 8.34027 0.559221 6.77817 2.12132L1.12132 7.77817C0.926058 7.97343 0.926058 8.29002 1.12132 8.48528C1.31658 8.68054 1.63317 8.68054 1.82843 8.48528Z" fill="#605E5C"/>
</svg>
